<svg xmlns="http://www.w3.org/2000/svg" xmlns:svg="http://www.w3.org/2000/svg" id="svg8" width="210mm" height="297mm" version="1.1" viewBox="0 0 210 297"><defs id="defs2"><marker style="overflow:visible" id="marker1218" orient="auto" refX="0" refY="0"><path style="fill-rule:evenodd;stroke:#000;stroke-width:1pt" id="path1216" d="M 0.0,0.0 L 5.0,-5.0 L -12.5,0.0 L 5.0,5.0 L 0.0,0.0 z" transform="scale(0.8) translate(12.5,0)"/></marker><marker style="overflow:visible" id="marker1190" orient="auto" refX="0" refY="0"><path style="fill-rule:evenodd;stroke:#000;stroke-width:1pt" id="path1188" d="M 0.0,0.0 L 5.0,-5.0 L -12.5,0.0 L 5.0,5.0 L 0.0,0.0 z" transform="scale(0.8) rotate(180) translate(12.5,0)"/></marker><marker style="overflow:visible" id="marker1186" orient="auto" refX="0" refY="0"><path style="fill-rule:evenodd;stroke:#000;stroke-width:1pt" id="path1184" d="M 0.0,0.0 L 5.0,-5.0 L -12.5,0.0 L 5.0,5.0 L 0.0,0.0 z" transform="scale(0.8) translate(12.5,0)"/></marker><marker style="overflow:visible" id="Arrow1Lend" orient="auto" refX="0" refY="0"><path style="fill-rule:evenodd;stroke:#000;stroke-width:1pt" id="path909" d="M 0.0,0.0 L 5.0,-5.0 L -12.5,0.0 L 5.0,5.0 L 0.0,0.0 z" transform="scale(0.8) rotate(180) translate(12.5,0)"/></marker><marker style="overflow:visible" id="Arrow1Lstart" orient="auto" refX="0" refY="0"><path style="fill-rule:evenodd;stroke:#000;stroke-width:1pt" id="path906" d="M 0.0,0.0 L 5.0,-5.0 L -12.5,0.0 L 5.0,5.0 L 0.0,0.0 z" transform="scale(0.8) translate(12.5,0)"/></marker></defs><metadata id="metadata5"/><g id="layer1"><path id="path835" d="m 1.322917,9.260421 h 7.9375 L 5.291667,2.645833 Z" style="fill:#e3e100;fill-opacity:1;stroke:#000;stroke-width:.75;stroke-linecap:butt;stroke-linejoin:round;stroke-miterlimit:4;stroke-dasharray:none;stroke-opacity:1"/><g style="font-style:normal;font-variant:normal;font-weight:700;font-stretch:normal;font-size:7.05556px;line-height:1.25;font-family:'Times New Roman';-inkscape-font-specification:'Times New Roman, Bold';font-variant-ligatures:normal;font-variant-caps:normal;font-variant-numeric:normal;font-variant-east-asian:normal;fill:#e3e100;fill-opacity:1;stroke:#e3e100;stroke-width:1.22706;stroke-miterlimit:4;stroke-dasharray:none;stroke-opacity:1" id="text839-8" aria-label="!" transform="scale(1.2189341,0.82038889)"><path id="path903" d="M 4.4187404,8.8449135 H 4.2671561 Q 4.2430404,8.4521723 4.1086816,7.8940665 L 3.9295365,7.1430352 Q 3.7676169,6.467796 3.7676169,6.1749627 q 0,-0.2652725 0.1584745,-0.4271921 0.1584745,-0.1619196 0.4134117,-0.1619196 0.2480471,0 0.4099667,0.1653647 0.1653647,0.1619196 0.1653647,0.4134117 0,0.2618275 -0.1722549,0.9784078 L 4.5599894,7.8940665 q -0.096463,0.3996313 -0.141249,0.950847 z m -0.072347,0.4926489 q 0.2308216,0 0.3927412,0.1653647 0.1653647,0.1619196 0.1653647,0.3961863 0,0.2308216 -0.1653647,0.3961866 -0.1619196,0.161919 -0.3927412,0.161919 -0.2308215,0 -0.3961862,-0.161919 -0.1619196,-0.165365 -0.1619196,-0.3961866 0,-0.2308216 0.1619196,-0.3961863 0.1619196,-0.1653647 0.3961862,-0.1653647 z" style="font-style:normal;font-variant:normal;font-weight:700;font-stretch:normal;font-size:7.05556px;font-family:'Times New Roman';-inkscape-font-specification:'Times New Roman, Bold';font-variant-ligatures:normal;font-variant-caps:normal;font-variant-numeric:normal;font-variant-east-asian:normal;fill:#e3e100;fill-opacity:1;stroke:#e3e100;stroke-width:1.22706;stroke-miterlimit:4;stroke-dasharray:none;stroke-opacity:1"/></g><text id="text839" x="3.165" y="10.364" transform="scale(1.2189341,0.82038889)" xml:space="preserve" style="font-style:normal;font-variant:normal;font-weight:700;font-stretch:normal;font-size:7.05556px;line-height:1.25;font-family:'Times New Roman';-inkscape-font-specification:'Times New Roman, Bold';font-variant-ligatures:normal;font-variant-caps:normal;font-variant-numeric:normal;font-variant-east-asian:normal;fill:#000;fill-opacity:1;stroke:none;stroke-width:1.22706;stroke-miterlimit:4;stroke-dasharray:none"><tspan style="font-style:normal;font-variant:normal;font-weight:700;font-stretch:normal;font-size:7.05556px;font-family:'Times New Roman';-inkscape-font-specification:'Times New Roman, Bold';font-variant-ligatures:normal;font-variant-caps:normal;font-variant-numeric:normal;font-variant-east-asian:normal;stroke-width:1.22706;stroke-miterlimit:4;stroke-dasharray:none" id="tspan837" x="3.165" y="10.364">!</tspan></text></g></svg>