<svg xmlns="http://www.w3.org/2000/svg" xmlns:svg="http://www.w3.org/2000/svg" id="svg2" width="32" height="32" version="1.1" viewBox="0 0 8.467 8.467"><metadata id="metadata7"/><g id="layer1" transform="translate(0,-288.53332)"><path style="color:#000;font-style:normal;font-variant:normal;font-weight:400;font-stretch:normal;font-size:medium;line-height:normal;font-family:sans-serif;font-variant-ligatures:none;font-variant-position:normal;font-variant-caps:normal;font-variant-numeric:normal;font-variant-alternates:normal;font-feature-settings:normal;text-indent:0;text-align:start;text-decoration:none;text-decoration-line:none;text-decoration-style:solid;text-decoration-color:#000;letter-spacing:normal;word-spacing:normal;text-transform:none;direction:ltr;block-progression:tb;writing-mode:lr-tb;baseline-shift:baseline;text-anchor:start;white-space:normal;shape-padding:0;clip-rule:nonzero;display:inline;overflow:visible;visibility:visible;opacity:1;isolation:auto;mix-blend-mode:normal;color-interpolation:sRGB;color-interpolation-filters:linearRGB;solid-color:#000;solid-opacity:1;fill:#fff;fill-opacity:1;fill-rule:evenodd;stroke:none;stroke-width:3.99999976;stroke-linecap:butt;stroke-linejoin:round;stroke-miterlimit:4;stroke-dasharray:none;stroke-dashoffset:0;stroke-opacity:1;color-rendering:auto;image-rendering:auto;shape-rendering:auto;text-rendering:auto;enable-background:accumulate" id="path4500" d="M 16.011719 1.0039062 A 2.0001999 2.0001999 0 0 0 14.210938 2.1035156 L 1.2109375 28.101562 A 2.0001999 2.0001999 0 0 0 2.9960938 31.003906 L 29.003906 31.003906 A 2.0001999 2.0001999 0 0 0 30.789062 28.101562 L 17.791016 2.1035156 A 2.0001999 2.0001999 0 0 0 16.011719 1.0039062 z M 14.025391 7.0332031 L 18.101562 7.0332031 L 18.101562 11.902344 L 17.046875 20.861328 L 15.105469 20.861328 L 14.025391 11.902344 L 14.025391 7.0332031 z M 14.117188 22.398438 L 17.996094 22.398438 L 17.996094 26.160156 L 14.117188 26.160156 L 14.117188 22.398438 z" transform="matrix(0.26458333,0,0,0.26458333,0,288.53332)"/></g></svg>